# xmcd CD database file
#
# Track frame offsets:
#	150
#	19667
#	41005
#	55410
#	70495
#	93782
#	116367
#	131310
#	151275
#	172622
#	191592
#	212737
#	235537
#	251120
#	273487
#	294107
#	314615
#
# Disc length: 4498 seconds
#
# Revision: 0
# Processed by: cddbd v1.5.1PL2 Copyright (c) Steve Scherf et al.
# Submitted via: CDex 1.51
#
DISCID=e4119011
DTITLE=Plastic Tree - 黒盤
DYEAR=2005
DGENRE=Visual_Rock
TTITLE0=散リユク僕ラ
TTITLE1=星座づくり
TTITLE2=バカになったのに
TTITLE3=千葉市、若葉区、6時30分。
TTITLE4=メランコリック
TTITLE5=懺悔は浴室で
TTITLE6=エンゼルフィッシュ
TTITLE7=cell
TTITLE8=グライダー
TTITLE9=ガーベラ
TTITLE10=サンデー
TTITLE11=lilac
TTITLE12=ナショナルキッド
TTITLE13=怪物くん
TTITLE14=バリア
TTITLE15=スライド.
TTITLE16=Sink
EXTD=YEAR: 2005
EXTT0=
EXTT1=
EXTT2=
EXTT3=
EXTT4=
EXTT5=
EXTT6=
EXTT7=
EXTT8=
EXTT9=
EXTT10=
EXTT11=
EXTT12=
EXTT13=
EXTT14=
EXTT15=
EXTT16=
PLAYORDER=
